<?xml version="1.0" standalone="no"?>
<!DOCTYPE svg PUBLIC "-//W3C//DTD SVG 20010904//EN"
 "http://www.w3.org/TR/2001/REC-SVG-20010904/DTD/svg10.dtd">
<svg version="1.0" xmlns="http://www.w3.org/2000/svg"
 width="16.000000pt" height="16.000000pt" viewBox="0 0 16.000000 16.000000"
 preserveAspectRatio="xMidYMid meet">

<g transform="translate(0.000000,16.000000) scale(0.100000,-0.100000)"
fill="#000000" stroke="none">
<path d="M0 88 l0 -72 28 27 c15 15 39 27 53 27 29 0 49 17 49 42 0 15 -9 18
-55 18 -54 0 -55 -1 -54 -27 2 -24 2 -25 6 -5 4 19 11 22 49 22 38 0 45 -3 42
-17 -2 -12 -14 -19 -33 -21 -17 -2 -40 -13 -52 -25 l-23 -20 0 56 0 56 53 4
52 3 -57 2 -58 2 0 -72z"/>
<path d="M150 119 c0 -30 -18 -59 -37 -59 -14 0 -14 -2 2 -20 24 -27 7 -25
-22 2 l-24 22 -32 -32 -32 -32 78 0 77 0 0 70 c0 39 -2 70 -5 70 -3 0 -5 -9
-5 -21z"/>
</g>
</svg>
